<svg width="71" height="28" viewBox="0 0 71 28" xmlns="http://www.w3.org/2000/svg"><path d="M44.84 8.615H30.545c-1.007 0-1.826.806-1.826 1.795 0 .99.819 1.795 1.826 1.795H44.84c1.007 0 1.826-.805 1.826-1.795 0-.99-.82-1.795-1.826-1.795zm-4.307 8.616H26.236c-1.007 0-1.826.805-1.826 1.795 0 .99.82 1.795 1.826 1.795h14.297c1.007 0 1.826-.806 1.826-1.795 0-.99-.82-1.795-1.826-1.795zm21.62-6.82l7.691-7.485c.342-.334.525-.771.515-1.233a1.668 1.668 0 00-.57-1.212C69.444.171 68.99 0 68.51 0c-.508 0-.982.189-1.334.532l-7.585 7.38-7.585-7.38A1.898 1.898 0 0050.67 0c-.48 0-.934.171-1.28.481-.357.32-.559.75-.57 1.212-.01.462.173.9.516 1.233l7.69 7.484-7.69 7.485a1.659 1.659 0 00-.515 1.233c.01.461.212.892.569 1.211.346.31.8.482 1.28.482.509 0 .983-.19 1.335-.533l7.585-7.38 7.584 7.38c.353.343.827.533 1.335.533.48 0 .935-.172 1.28-.482.357-.32.56-.75.57-1.211.01-.462-.173-.9-.515-1.233l-7.691-7.485zm-52.065 6.82H3.59V5.46c0-1.032.879-1.871 1.96-1.871h4.538c3.939 0 7.143 3.06 7.143 6.82 0 3.761-3.204 6.82-7.143 6.82zM10.09 0H5.578C2.502 0 0 2.421 0 5.398v20.846C0 27.212.814 28 1.815 28c1 0 1.814-.788 1.814-1.756v-5.477h6.461c5.917 0 10.73-4.658 10.73-10.383C20.82 4.658 16.008 0 10.09 0zm16.146 3.59h14.297c1.007 0 1.826-.805 1.826-1.795 0-.99-.82-1.795-1.826-1.795H26.236C25.23 0 24.41.805 24.41 1.795c0 .99.82 1.795 1.826 1.795z"></path></svg>
